HIERARCHY
ROOT hip
{
	OFFSET 0.00000 0.00000 0.00000
	CHANNELS 6 Xposition Yposition Zposition Zrotation Yrotation Xrotation 
	JOINT rightuplegdummy
	{
		OFFSET 0 0 0
		CHANNELS 3 Zrotation Yrotation Xrotation
		JOINT rightupleg
		{
			OFFSET -3.52197 -3.41223 0.04002
			CHANNELS 3 Zrotation Yrotation Xrotation
			JOINT rightleg
			{
				OFFSET 0.00006 -17.42390 1.60435
				CHANNELS 3 Zrotation Yrotation Xrotation
				JOINT rightfoot
				{
					OFFSET 0.06153 -16.50078 -1.63901
					CHANNELS 3 Zrotation Yrotation Xrotation
					JOINT righttoes
					{
						OFFSET 0.00298 -1.73825 3.34613
						CHANNELS 3 Zrotation Yrotation Xrotation
						End Site
						{
							OFFSET 0.00480 -0.05416 3.85043
						}
					}
				}
			}
		}
	}
	JOINT spinedummy
	{
		OFFSET 0 0 0
		CHANNELS 3 Zrotation Yrotation Xrotation
		JOINT spine
		{
			OFFSET 0.00000 4.68130 0.00000
			CHANNELS 3 Zrotation Yrotation Xrotation
			JOINT spine1
			{
				OFFSET -0.00000 10.10138 0.05002
				CHANNELS 3 Zrotation Yrotation Xrotation
				JOINT headdummy
				{
					OFFSET 0 0 0
					CHANNELS 3 Zrotation Yrotation Xrotation
					JOINT head
					{
						OFFSET -0.00000 3.43865 0.00438
						CHANNELS 3 Zrotation Yrotation Xrotation
						End Site
						{
							OFFSET -0.11417 5.02924 0.98962
						}
					}
				}
				JOINT leftshoulder1dummy
				{
					OFFSET 0 0 0
					CHANNELS 3 Zrotation Yrotation Xrotation
					JOINT leftshoulder1
					{
						OFFSET 3.53937 -0.14262 -0.08662
						CHANNELS 3 Zrotation Yrotation Xrotation
						JOINT leftarm
						{
							OFFSET 4.04833 -0.00133 0.12681
							CHANNELS 3 Zrotation Yrotation Xrotation
							JOINT leftforearm
							{
								OFFSET 10.33880 -0.01036 -0.55515
								CHANNELS 3 Zrotation Yrotation Xrotation
								JOINT lefthand
								{
									OFFSET 8.69677 0.07543 0.40060
									CHANNELS 3 Zrotation Yrotation Xrotation
									End Site
									{
										OFFSET 5.28377 -0.21905 0.59205
									}
								}
							}
						}
					}
				}
				JOINT rightshoulderdummy
				{
					OFFSET 0 0 0
					CHANNELS 3 Zrotation Yrotation Xrotation
					JOINT rightshoulder
					{
						OFFSET -3.53937 -0.14262 -0.08660
						CHANNELS 3 Zrotation Yrotation Xrotation
						JOINT rightarm
						{
							OFFSET -4.04833 -0.00133 0.12683
							CHANNELS 3 Zrotation Yrotation Xrotation
							JOINT rightforearm
							{
								OFFSET -10.37987 -0.01039 -0.55511
								CHANNELS 3 Zrotation Yrotation Xrotation
								JOINT righthand
								{
									OFFSET -8.67398 0.07538 0.40058
									CHANNELS 3 Zrotation Yrotation Xrotation
									End Site
									{
										OFFSET -5.24810 -0.21916 0.59204
									}
								}
							}
						}
					}
				}
			}
		}
	}
	JOINT leftuplegdummy
	{
		OFFSET 0 0 0
		CHANNELS 3 Zrotation Yrotation Xrotation
		JOINT leftupleg
		{
			OFFSET 3.52197 -3.41223 0.04002
			CHANNELS 3 Zrotation Yrotation Xrotation
			JOINT leftleg
			{
				OFFSET -0.00012 -17.42399 1.60337
				CHANNELS 3 Zrotation Yrotation Xrotation
				JOINT leftfoot
				{
					OFFSET -0.09972 -16.50070 -1.63802
					CHANNELS 3 Zrotation Yrotation Xrotation
					JOINT lefttoes
					{
						OFFSET -0.01575 -1.73823 3.34611
						CHANNELS 3 Zrotation Yrotation Xrotation
						End Site
						{
							OFFSET 0.03150 -0.01868 3.85031
						}
					}
				}
			}
		}
	}
}
MOTION
Frames: 14
Frame Time: 0.033333
9.8782 39.0424 20.6791 -0.7018 -46.2323 6.1685 0.0000 -0.0000 0.0000 -17.5656 2.1680 -7.5244 -8.1774 -10.2384 32.4672 19.7876 -1.9975 -0.0440 0.0000 0.0000 0.0000 0.0000 -0.0000 0.0000 -3.2352 -0.0301 -2.2934 4.5853 -1.1326 12.4380 -0.0000 -0.0000 -0.0000 -13.9819 29.3117 -35.0742 -0.0000 -0.0000 -0.0000 -37.7910 -12.9747 7.2324 -24.6648 -4.2228 6.2806 173.7900 -81.9267 -145.6652 7.8577 -2.2996 -0.4997 -0.0000 -0.0000 -0.0000 32.8975 6.4792 3.8826 38.8795 -6.7461 10.1100 -6.4268 80.8334 25.4229 -2.5192 9.0050 -0.2360 0.0000 -0.0000 0.0000 4.8304 -2.1557 -12.3634 7.6837 13.2757 23.6526 -11.8994 0.1051 -10.9590 0.0000 0.0000 0.0000
9.9180 39.1704 21.1427 -1.8180 -45.1586 7.0447 0.0000 -0.0000 0.0000 -16.8787 2.5506 -11.9376 -10.0205 -9.7129 39.9165 12.6027 -1.9448 6.3497 0.0000 0.0000 0.0000 0.0000 -0.0000 0.0000 -3.8776 -0.1969 -0.7163 6.6025 -1.8532 11.2635 -0.0000 -0.0000 -0.0000 -14.8480 28.7635 -36.2827 -0.0000 -0.0000 -0.0000 -38.3867 -13.1544 7.4142 -27.3680 -3.4962 5.6926 174.2051 -80.8213 -144.9290 7.8633 -2.4103 -0.5067 -0.0000 -0.0000 -0.0000 33.2813 6.4731 3.9187 39.3001 -10.7444 6.7231 -6.5106 82.6664 21.0724 -4.5595 7.7893 -0.4519 0.0000 -0.0000 0.0000 5.2503 -2.8698 -12.5964 7.7135 12.9097 24.4301 -11.8071 0.1229 -10.7740 0.0000 0.0000 0.0000
9.7232 39.4658 21.4563 -2.3910 -44.0093 7.8940 0.0000 -0.0000 0.0000 -15.6928 1.5332 -15.0925 -9.1102 -7.8850 42.9136 4.8739 -0.8210 8.0264 0.0000 0.0000 0.0000 0.0000 -0.0000 0.0000 -6.2443 -0.7619 0.1417 9.5761 -3.2506 10.2488 -0.0000 -0.0000 -0.0000 -16.2700 29.3549 -37.4296 -0.0000 -0.0000 -0.0000 -38.0177 -12.9973 7.2808 -32.3340 -0.2204 5.2410 176.5560 -76.5495 -150.1592 7.6962 -2.2277 -0.4846 -0.0000 -0.0000 -0.0000 33.3438 6.4477 3.9150 40.1429 -15.9547 5.6633 -13.4922 87.5750 7.8485 -3.3112 7.8279 -0.3101 0.0000 -0.0000 0.0000 5.8257 -2.8491 -12.1365 6.6055 11.6176 22.9386 -11.9207 0.2746 -9.2386 0.0000 0.0000 0.0000
9.3826 39.8455 21.6908 -2.7201 -42.8514 8.7993 0.0000 -0.0000 0.0000 -14.3377 0.6169 -15.5835 -5.3628 -5.2365 38.3823 5.3482 -0.6292 2.8379 0.0000 0.0000 0.0000 0.0000 -0.0000 0.0000 -8.0615 -1.7719 -0.4920 11.1061 -4.7536 10.6716 -0.0000 -0.0000 -0.0000 -16.5354 30.7383 -37.2837 -0.0000 -0.0000 -0.0000 -37.4878 -12.7818 7.0960 -35.8195 2.7929 5.0227 177.4095 -74.0277 -153.1654 7.9261 -1.7685 -0.4723 -0.0000 -0.0000 -0.0000 33.3768 6.4453 3.9173 41.3220 -18.9549 5.1795 -44.7001 89.1299 -22.2753 -3.3351 8.1502 -0.3203 0.0000 -0.0000 0.0000 6.4951 -3.1208 -11.3417 5.6670 11.0835 20.2717 -12.3989 0.5108 -7.0276 0.0000 0.0000 0.0000
8.9267 40.1114 21.8377 -2.6689 -42.4291 9.1797 0.0000 -0.0000 0.0000 -13.6094 3.4969 -14.5720 -3.1633 -4.3272 28.5301 9.6012 -0.7374 -2.6216 0.0000 0.0000 0.0000 0.0000 -0.0000 0.0000 -9.3592 -2.3943 -0.8737 11.1415 -5.4319 10.6623 -0.0000 -0.0000 -0.0000 -15.7522 31.8981 -35.8399 -0.0000 -0.0000 -0.0000 -37.2732 -12.7099 7.0286 -37.3049 5.0246 5.0833 177.2881 -74.5598 -152.6573 7.2163 -1.8532 -0.4330 -0.0000 -0.0000 -0.0000 33.7011 6.4877 3.9666 41.9748 -20.6523 4.5614 -25.7854 88.3235 -0.5481 -2.0121 8.9293 -0.1709 0.0000 -0.0000 0.0000 6.9667 -2.7434 -10.6036 5.0155 10.2390 18.7131 -13.4822 0.7445 -5.3159 0.0000 0.0000 0.0000
8.4256 40.1728 21.9393 -2.4030 -42.4107 8.9155 0.0000 -0.0000 0.0000 -13.7096 9.0205 -13.5215 -2.6742 -5.5913 18.1929 10.1907 -0.5109 -5.8619 0.0000 0.0000 0.0000 0.0000 -0.0000 0.0000 -10.0624 -2.5460 -0.3032 11.0304 -5.4904 9.8203 -0.0000 -0.0000 -0.0000 -15.6659 32.5324 -34.8883 -0.0000 -0.0000 -0.0000 -37.4571 -12.7991 7.0984 -37.0264 6.3043 5.6665 176.8191 -76.6898 -151.8648 6.9106 -2.2662 -0.4352 -0.0000 -0.0000 -0.0000 34.0198 6.5573 4.0266 41.5627 -21.5178 5.3301 -15.4785 87.6053 7.7657 -2.8199 8.3015 -0.2617 0.0000 -0.0000 0.0000 7.2820 -1.5261 -9.7884 4.2946 8.4762 18.4015 -14.5824 0.8653 -4.8026 0.0000 0.0000 0.0000
7.9031 39.9952 22.0076 -2.0096 -42.0880 8.6887 0.0000 -0.0000 0.0000 -11.6956 5.9064 -13.2297 -1.9861 3.9236 10.4110 11.6942 -0.3762 -7.9531 0.0000 0.0000 0.0000 0.0000 -0.0000 0.0000 -9.8216 -2.7950 -0.3070 10.2082 -5.4773 9.7142 -0.0000 -0.0000 -0.0000 -16.4454 32.6817 -35.1355 -0.0000 -0.0000 -0.0000 -37.5223 -12.8760 7.1430 -35.4111 6.3121 6.7171 176.2718 -78.5057 -151.1121 7.3502 -2.5047 -0.4773 -0.0000 -0.0000 -0.0000 33.7536 6.5674 4.0036 40.8277 -20.8740 6.8599 -11.5083 87.1023 10.4210 -3.6113 8.0445 -0.3491 0.0000 -0.0000 0.0000 7.5848 -1.4809 -9.6855 4.2453 8.0850 19.3558 -15.1259 0.7521 -5.9426 0.0000 0.0000 0.0000
7.3572 39.6403 21.9380 -1.6150 -41.1479 8.6250 0.0000 -0.0000 0.0000 -10.4981 5.7114 -14.7850 -1.2745 9.9812 9.3338 13.3097 -0.3653 -8.4786 0.0000 0.0000 0.0000 0.0000 -0.0000 0.0000 -9.4651 -2.9264 -0.1006 9.7984 -5.4672 9.5498 -0.0000 -0.0000 -0.0000 -17.3381 32.0356 -35.9586 -0.0000 -0.0000 -0.0000 -37.1759 -12.8383 7.0680 -33.3803 5.2683 7.3620 175.8391 -79.2213 -149.8894 6.8437 -2.5508 -0.4454 -0.0000 -0.0000 -0.0000 33.2138 6.4972 3.9214 40.0313 -18.9620 7.3555 -9.9099 86.2561 13.4677 -2.5007 8.7984 -0.2306 0.0000 -0.0000 0.0000 8.0890 -2.9955 -10.3734 4.8929 8.9908 21.2296 -15.1557 0.4832 -8.0716 0.0000 0.0000 0.0000
6.8292 39.2770 21.7534 -1.3265 -40.0084 7.6799 0.0000 -0.0000 0.0000 -12.5095 15.6726 -17.3238 -0.9362 0.4854 15.0112 9.5110 -0.2414 -8.8321 0.0000 0.0000 0.0000 0.0000 -0.0000 0.0000 -8.3350 -2.5299 1.8398 9.3906 -5.0482 8.9423 -0.0000 -0.0000 -0.0000 -18.4191 30.5464 -36.9772 -0.0000 -0.0000 -0.0000 -37.0973 -12.8685 7.0678 -31.0019 3.1318 7.1524 175.2937 -80.3296 -149.0575 6.6687 -2.5322 -0.4323 -0.0000 -0.0000 -0.0000 32.9188 6.4532 3.8746 39.1130 -16.2987 7.2501 -7.6590 84.9626 16.3069 -2.3991 8.7879 -0.2181 0.0000 -0.0000 0.0000 8.6322 -5.0559 -9.9170 5.7000 10.0980 22.4683 -15.0730 0.2441 -9.9447 0.0000 0.0000 0.0000
6.2783 39.0189 21.5350 -1.2387 -38.1247 6.5632 0.0000 -0.0000 0.0000 -11.5223 17.6000 -18.3745 -2.2007 -3.9424 21.1405 5.4407 -0.0898 -10.2550 0.0000 0.0000 0.0000 0.0000 -0.0000 0.0000 -6.1022 -2.4440 3.6847 7.8188 -4.7003 9.0500 -0.0000 -0.0000 -0.0000 -19.3423 28.8944 -37.8330 -0.0000 -0.0000 -0.0000 -37.4459 -13.0070 7.1872 -29.0086 0.3104 6.3454 173.8454 -82.6699 -147.6212 7.9382 -2.3992 -0.5111 -0.0000 -0.0000 -0.0000 32.7468 6.4996 3.8754 38.1147 -13.0879 7.7424 -5.3663 82.9550 18.4064 -3.3104 8.0314 -0.3144 0.0000 -0.0000 0.0000 9.4206 -7.7962 -9.0667 6.5962 11.5624 23.0042 -15.4245 0.0876 -11.1867 0.0000 0.0000 0.0000
5.6611 38.9974 21.3802 -0.4791 -35.2166 5.7651 0.0000 -0.0000 0.0000 -10.3476 14.7846 -17.9912 -2.3864 -3.8768 23.6224 4.7011 -0.0325 -11.5881 0.0000 0.0000 0.0000 0.0000 -0.0000 0.0000 -5.0428 -2.8452 4.0332 6.8270 -4.9425 9.6941 -0.0000 -0.0000 -0.0000 -19.4740 27.7152 -37.8141 -0.0000 -0.0000 -0.0000 -37.6756 -13.0797 7.2584 -29.0935 -1.5940 5.3757 171.4909 -84.5181 -144.7241 8.8366 -2.2935 -0.5642 -0.0000 -0.0000 -0.0000 32.7455 6.5271 3.8859 36.6064 -10.1986 8.5491 -3.9302 80.7262 19.3320 -5.2146 7.6349 -0.5218 0.0000 -0.0000 0.0000 9.9233 -10.8184 -8.5232 6.7501 12.4548 21.8706 -15.8566 0.1583 -10.6628 0.0000 0.0000 0.0000
5.0319 39.1857 21.2683 0.4581 -31.6129 5.9509 0.0000 -0.0000 0.0000 -9.6299 11.4069 -17.1033 -2.4453 -4.0701 23.0980 4.1841 -0.0357 -11.5273 0.0000 0.0000 0.0000 0.0000 -0.0000 0.0000 -5.1496 -3.1658 3.5423 7.6760 -5.4421 9.4132 -0.0000 -0.0000 -0.0000 -19.4894 26.9053 -36.5912 -0.0000 -0.0000 -0.0000 -38.0201 -13.1747 7.3597 -30.9771 -1.6576 5.1682 171.0504 -84.6417 -143.6958 8.7622 -2.1746 -0.5513 -0.0000 -0.0000 -0.0000 32.8165 6.4333 3.8567 35.0533 -8.7006 8.9278 -3.1750 79.6598 18.7292 -7.7981 7.6408 -0.8120 0.0000 -0.0000 0.0000 10.5705 -11.8372 -8.7883 5.3202 10.6823 18.9913 -15.1825 0.4817 -8.0702 0.0000 0.0000 0.0000
4.5467 39.4458 21.1790 0.7367 -27.9289 6.7278 0.0000 -0.0000 0.0000 -8.5950 8.6721 -15.8611 -3.0159 -5.5575 21.1775 2.9350 -0.0554 -10.7153 0.0000 0.0000 0.0000 0.0000 -0.0000 0.0000 -3.7657 -3.2172 3.2447 7.9661 -5.4373 8.2516 -0.0000 -0.0000 -0.0000 -20.2340 26.0648 -34.7363 -0.0000 -0.0000 -0.0000 -38.5571 -13.3651 7.5383 -33.1198 -0.8704 6.2637 171.6010 -84.1639 -143.8405 8.4544 -2.2002 -0.5329 -0.0000 -0.0000 -0.0000 32.3771 6.3062 3.7643 34.4743 -8.2004 8.9710 -2.9636 79.7745 18.0342 -9.1341 7.3645 -0.9427 0.0000 -0.0000 0.0000 11.0937 -9.4996 -9.7205 4.4462 8.9353 16.8370 -13.2082 0.6851 -5.7022 0.0000 0.0000 0.0000
4.2157 39.7026 21.0782 1.0698 -24.7624 7.0325 0.0000 -0.0000 0.0000 -7.9182 6.6071 -14.4368 -3.2460 -6.6439 18.9559 2.4623 -0.0708 -9.7258 0.0000 0.0000 0.0000 0.0000 -0.0000 0.0000 -1.9409 -2.9136 3.1970 7.1360 -4.8588 7.5204 -0.0000 -0.0000 -0.0000 -21.3987 25.3108 -33.2749 -0.0000 -0.0000 -0.0000 -38.4758 -13.3944 7.5370 -35.0734 -0.3444 8.1050 171.5605 -84.0150 -143.2346 7.9106 -2.5759 -0.5199 -0.0000 -0.0000 -0.0000 31.7123 6.2701 3.6856 34.0462 -7.2590 9.4156 -2.9709 79.8177 18.0047 -6.9691 7.2647 -0.6995 0.0000 -0.0000 0.0000 10.4626 -5.1426 -10.8036 5.6938 12.1887 17.3182 -11.0332 0.6118 -5.3376 0.0000 0.0000 0.0000
